<svg width="315" height="239" viewBox="0 0 315 239" fill="none" xmlns="http://www.w3.org/2000/svg">
<g clip-path="url(#clip0_1_726)">
<path d="M287.934 135.857H286.088V169.407H287.934V135.857Z" fill="#F3F5FD"/>
<path d="M285.976 113.217C291.924 113.217 296.746 108.384 296.746 102.422C296.746 96.4609 291.924 91.6281 285.976 91.6281C280.028 91.6281 275.207 96.4609 275.207 102.422C275.207 108.384 280.028 113.217 285.976 113.217Z" fill="#F3F5FD"/>
<path d="M292.266 143.322C297.577 143.322 301.883 139.006 301.883 133.682C301.883 128.358 297.577 124.042 292.266 124.042C286.954 124.042 282.648 128.358 282.648 133.682C282.648 139.006 286.954 143.322 292.266 143.322Z" fill="#F3F5FD"/>
<path d="M280.804 143.974C286.475 143.974 291.072 139.366 291.072 133.682C291.072 127.998 286.475 123.39 280.804 123.39C275.133 123.39 270.536 127.998 270.536 133.682C270.536 139.366 275.133 143.974 280.804 143.974Z" fill="#F3F5FD"/>
<path d="M293.601 121.868C298.368 121.868 302.232 117.995 302.232 113.217C302.232 108.439 298.368 104.565 293.601 104.565C288.834 104.565 284.969 108.439 284.969 113.217C284.969 117.995 288.834 121.868 293.601 121.868Z" fill="#F3F5FD"/>
<path d="M287.011 127.066C291.778 127.066 295.643 123.192 295.643 118.414C295.643 113.636 291.778 109.763 287.011 109.763C282.244 109.763 278.38 113.636 278.38 118.414C278.38 123.192 282.244 127.066 287.011 127.066Z" fill="#F3F5FD"/>
<path d="M297.293 130.52C302.06 130.52 305.925 126.646 305.925 121.868C305.925 117.09 302.06 113.217 297.293 113.217C292.526 113.217 288.662 117.09 288.662 121.868C288.662 126.646 292.526 130.52 297.293 130.52Z" fill="#F3F5FD"/>
<path d="M276.337 121.561C281.104 121.561 284.969 117.687 284.969 112.909C284.969 108.131 281.104 104.258 276.337 104.258C271.57 104.258 267.706 108.131 267.706 112.909C267.706 117.687 271.57 121.561 276.337 121.561Z" fill="#F3F5FD"/>
<path d="M276.337 132.295C281.104 132.295 284.969 128.421 284.969 123.643C284.969 118.865 281.104 114.992 276.337 114.992C271.57 114.992 267.706 118.865 267.706 123.643C267.706 128.421 271.57 132.295 276.337 132.295Z" fill="#F3F5FD"/>
<path d="M152.837 146.886H150.991V180.436H152.837V146.886Z" fill="#F3F5FD"/>
<path d="M150.879 124.246C156.827 124.246 161.648 119.413 161.648 113.452C161.648 107.49 156.827 102.657 150.879 102.657C144.931 102.657 140.11 107.49 140.11 113.452C140.11 119.413 144.931 124.246 150.879 124.246Z" fill="#F3F5FD"/>
<path d="M157.169 154.351C162.481 154.351 166.786 150.035 166.786 144.712C166.786 139.388 162.481 135.072 157.169 135.072C151.857 135.072 147.552 139.388 147.552 144.712C147.552 150.035 151.857 154.351 157.169 154.351Z" fill="#F3F5FD"/>
<path d="M145.707 155.003C151.378 155.003 155.975 150.395 155.975 144.712C155.975 139.028 151.378 134.42 145.707 134.42C140.036 134.42 135.439 139.028 135.439 144.712C135.439 150.395 140.036 155.003 145.707 155.003Z" fill="#F3F5FD"/>
<path d="M158.503 132.897C163.27 132.897 167.135 129.024 167.135 124.246C167.135 119.468 163.27 115.594 158.503 115.594C153.736 115.594 149.872 119.468 149.872 124.246C149.872 129.024 153.736 132.897 158.503 132.897Z" fill="#F3F5FD"/>
<path d="M151.914 138.095C156.681 138.095 160.545 134.221 160.545 129.443C160.545 124.665 156.681 120.792 151.914 120.792C147.147 120.792 143.282 124.665 143.282 129.443C143.282 134.221 147.147 138.095 151.914 138.095Z" fill="#F3F5FD"/>
<path d="M162.196 141.549C166.963 141.549 170.827 137.676 170.827 132.898C170.827 128.12 166.963 124.246 162.196 124.246C157.429 124.246 153.564 128.12 153.564 132.898C153.564 137.676 157.429 141.549 162.196 141.549Z" fill="#F3F5FD"/>
<path d="M141.24 132.59C146.007 132.59 149.871 128.716 149.871 123.938C149.871 119.16 146.007 115.287 141.24 115.287C136.473 115.287 132.608 119.16 132.608 123.938C132.608 128.716 136.473 132.59 141.24 132.59Z" fill="#F3F5FD"/>
<path d="M141.24 143.324C146.007 143.324 149.871 139.45 149.871 134.672C149.871 129.894 146.007 126.021 141.24 126.021C136.473 126.021 132.608 129.894 132.608 134.672C132.608 139.45 136.473 143.324 141.24 143.324Z" fill="#F3F5FD"/>
<path d="M217.598 123.792H214.679V176.837H217.598V123.792Z" fill="#DEE8F5"/>
<path d="M214.503 87.9964C223.907 87.9964 231.53 80.3555 231.53 70.93C231.53 61.5045 223.907 53.8636 214.503 53.8636C205.099 53.8636 197.476 61.5045 197.476 70.93C197.476 80.3555 205.099 87.9964 214.503 87.9964Z" fill="#0A2A05"/>
<path d="M224.447 135.594C232.845 135.594 239.653 128.77 239.653 120.353C239.653 111.936 232.845 105.113 224.447 105.113C216.05 105.113 209.242 111.936 209.242 120.353C209.242 128.77 216.05 135.594 224.447 135.594Z" fill="#0A2A05"/>
<path d="M206.325 136.625C215.291 136.625 222.559 129.34 222.559 120.353C222.559 111.367 215.291 104.082 206.325 104.082C197.36 104.082 190.091 111.367 190.091 120.353C190.091 129.34 197.36 136.625 206.325 136.625Z" fill="#0A2A05"/>
<path d="M226.557 101.675C234.094 101.675 240.205 95.551 240.205 87.9964C240.205 80.4418 234.094 74.3176 226.557 74.3176C219.02 74.3176 212.91 80.4418 212.91 87.9964C212.91 95.551 219.02 101.675 226.557 101.675Z" fill="#0A2A05"/>
<path d="M216.138 109.892C223.676 109.892 229.786 103.768 229.786 96.2137C229.786 88.6591 223.676 82.5349 216.138 82.5349C208.601 82.5349 202.491 88.6591 202.491 96.2137C202.491 103.768 208.601 109.892 216.138 109.892Z" fill="#0A2A05"/>
<path d="M232.395 115.354C239.932 115.354 246.042 109.23 246.042 101.675C246.042 94.1206 239.932 87.9964 232.395 87.9964C224.858 87.9964 218.748 94.1206 218.748 101.675C218.748 109.23 224.858 115.354 232.395 115.354Z" fill="#0A2A05"/>
<path d="M199.263 101.189C206.8 101.189 212.91 95.0647 212.91 87.5101C212.91 79.9555 206.8 73.8313 199.263 73.8313C191.726 73.8313 185.616 79.9555 185.616 87.5101C185.616 95.0647 191.726 101.189 199.263 101.189Z" fill="#0A2A05"/>
<path d="M199.263 118.16C206.8 118.16 212.91 112.036 212.91 104.482C212.91 96.9271 206.8 90.8029 199.263 90.8029C191.726 90.8029 185.616 96.9271 185.616 104.482C185.616 112.036 191.726 118.16 199.263 118.16Z" fill="#0A2A05"/>
<path d="M48.4394 121.675H46.2525V161.419H48.4394V121.675Z" fill="#DEE8F5"/>
<path d="M46.1206 94.8554C53.1662 94.8554 58.8778 89.1306 58.8778 82.0686C58.8778 75.0067 53.1662 69.2819 46.1206 69.2819C39.0749 69.2819 33.3633 75.0067 33.3633 82.0686C33.3633 89.1306 39.0749 94.8554 46.1206 94.8554Z" fill="#FFDA2D"/>
<path d="M53.5715 130.518C59.8636 130.518 64.9644 125.405 64.9644 119.099C64.9644 112.792 59.8636 107.68 53.5715 107.68C47.2794 107.68 42.1787 112.792 42.1787 119.099C42.1787 125.405 47.2794 130.518 53.5715 130.518Z" fill="#FFDA2D"/>
<path d="M39.9936 131.29C46.7112 131.29 52.1569 125.832 52.1569 119.099C52.1569 112.366 46.7112 106.907 39.9936 106.907C33.276 106.907 27.8303 112.366 27.8303 119.099C27.8303 125.832 33.276 131.29 39.9936 131.29Z" fill="#FFDA2D"/>
<path d="M55.1523 105.104C60.7996 105.104 65.3776 100.516 65.3776 94.8554C65.3776 89.1951 60.7996 84.6066 55.1523 84.6066C49.5051 84.6066 44.9271 89.1951 44.9271 94.8554C44.9271 100.516 49.5051 105.104 55.1523 105.104Z" fill="#FFDA2D"/>
<path d="M47.3459 111.261C52.9932 111.261 57.5712 106.673 57.5712 101.013C57.5712 95.3523 52.9932 90.7637 47.3459 90.7637C41.6987 90.7637 37.1207 95.3523 37.1207 101.013C37.1207 106.673 41.6987 111.261 47.3459 111.261Z" fill="#FFDA2D"/>
<path d="M59.5261 115.353C65.1733 115.353 69.7513 110.765 69.7513 105.104C69.7513 99.444 65.1733 94.8554 59.5261 94.8554C53.8789 94.8554 49.3009 99.444 49.3009 105.104C49.3009 110.765 53.8789 115.353 59.5261 115.353Z" fill="#FFDA2D"/>
<path d="M34.7019 104.74C40.3492 104.74 44.9271 100.151 44.9271 94.4911C44.9271 88.8309 40.3492 84.2423 34.7019 84.2423C29.0547 84.2423 24.4767 88.8309 24.4767 94.4911C24.4767 100.151 29.0547 104.74 34.7019 104.74Z" fill="#FFDA2D"/>
<path d="M34.7019 117.456C40.3492 117.456 44.9271 112.867 44.9271 107.207C44.9271 101.547 40.3492 96.9583 34.7019 96.9583C29.0547 96.9583 24.4767 101.547 24.4767 107.207C24.4767 112.867 29.0547 117.456 34.7019 117.456Z" fill="#FFDA2D"/>
<path d="M201.829 187.59H313.749C319.887 170.963 301.442 162.764 295.579 173.539C299.077 167.111 300.008 158.965 292.742 153.721C285.128 149.564 275.961 154.317 274.558 161.836C276.424 151.823 267.533 141.845 257.637 139.576C232.238 133.757 226.576 159.834 228.877 163.936C222.168 151.986 194.433 166.732 201.829 187.59Z" fill="#C1D8ED"/>
<path d="M0.016449 187.59H113.181C119.319 170.963 100.873 162.764 95.0087 173.539C98.5067 167.111 99.437 158.965 92.1718 153.721C84.5573 149.564 75.3908 154.317 73.9877 161.836C75.8538 151.823 66.9624 141.845 57.0669 139.576C31.6678 133.757 26.0051 159.834 28.3071 163.936C13.8743 156.35 0.016449 166.195 0.016449 187.59Z" fill="#C1D8ED"/>
<path d="M162.127 187.59H229.855C234.823 183.616 235.166 174.662 230.016 170.664C226.047 167.582 220.046 168.406 216.316 171.611C217.013 169.225 217.027 166.691 216.356 164.297C215.143 159.986 212.446 155.607 208.329 153.863C197.822 149.42 190.357 158.73 188.86 163.936C186.171 159.973 180.152 157.875 176.375 160.544C171.591 163.925 171.807 169.255 175.624 173.08C170.539 172.13 166.708 172.863 163.184 176.658C160.496 179.546 160.085 184.468 162.127 187.59Z" fill="#C1D8ED"/>
<path d="M167.931 187.59H99.4068C95.6484 177.41 106.941 172.39 110.531 178.987C108.39 175.051 107.821 170.064 112.268 166.852C116.93 164.307 122.543 167.217 123.402 171.821C122.259 165.691 127.703 159.581 133.762 158.194C149.312 154.631 152.778 170.597 151.37 173.107C155.478 165.791 172.459 174.819 167.931 187.59Z" fill="#C1D8ED"/>
<path d="M233.562 181.68H233.542C217.648 180.262 202.676 174.602 189.043 164.855C178.154 157.069 168.092 146.675 159.138 133.96C143.907 112.334 137.063 91.1752 136.995 90.9641C136.942 90.7953 136.957 90.612 137.038 90.4546C137.119 90.2971 137.259 90.1783 137.427 90.1244C137.596 90.0705 137.779 90.0858 137.936 90.1671C138.093 90.2483 138.211 90.3887 138.265 90.5575C138.332 90.7668 145.126 111.759 160.248 133.22C174.167 152.974 198.204 177.186 233.66 180.348C233.833 180.365 233.992 180.449 234.104 180.582C234.216 180.716 234.272 180.888 234.259 181.062C234.246 181.235 234.166 181.397 234.036 181.513C233.906 181.628 233.735 181.688 233.562 181.68H233.562Z" fill="#202123"/>
<path d="M126.999 17.5247C127.132 19.1586 125.433 20.6794 125.153 22.2193C124.864 23.8123 125.902 25.8359 125.224 27.2649C124.537 28.7149 122.309 29.1856 121.279 30.4005C120.248 31.6154 120.144 33.8955 118.827 34.8093C117.529 35.7097 115.369 35.0083 113.848 35.5516C112.376 36.0767 111.152 38.001 109.522 38.1346C107.892 38.2682 106.374 36.5648 104.838 36.2842C103.249 35.9938 101.23 37.035 99.804 36.3559C98.3578 35.667 97.8882 33.4336 96.6761 32.4009C95.464 31.3682 93.1892 31.2635 92.2775 29.9436C91.3791 28.6423 92.0789 26.4776 91.5373 24.9523C91.0134 23.4778 89.0936 22.2514 88.9603 20.617C88.827 18.9827 90.526 17.4623 90.806 15.9224C91.0956 14.3294 90.0573 12.3058 90.7349 10.8768C91.4222 9.42676 93.6504 8.95605 94.6807 7.74119C95.7111 6.52633 95.8155 4.24623 97.1324 3.33241C98.4302 2.43196 100.59 3.13335 102.112 2.59005C103.583 2.065 104.807 0.140731 106.437 0.00713165C108.067 -0.126468 109.585 1.57692 111.121 1.85748C112.711 2.14784 114.73 1.10665 116.155 1.78578C117.602 2.47471 118.071 4.70849 119.283 5.74121C120.495 6.77393 122.771 6.87814 123.682 8.1981C124.58 9.49935 123.88 11.6641 124.422 13.1894C124.946 14.6639 126.867 15.8907 126.999 17.5247Z" fill="#0F1011"/>
<path d="M102.075 35.2822C102.955 33.7908 103.896 30.9006 103.461 25.5353L110.56 24.2215C110.56 24.2215 109.76 32.5937 113.319 35.2822H102.075Z" fill="#E98862"/>
<path opacity="0.15" d="M111.89 33.5423L105.998 29.016L110.629 28.9714C110.762 30.5605 111.189 32.1108 111.89 33.5423Z" fill="black"/>
<path d="M99.4374 21.8969C99.9262 24.7421 101.472 27.4373 103.975 28.3582C106.703 29.4464 109.655 29.849 112.574 29.5308C120.344 28.8988 118.823 11.1898 115.137 7.74653C111.451 4.30323 100.623 6.47244 99.3019 12.2243C98.6173 15.1991 98.9718 19.1889 99.4374 21.8969Z" fill="#E98862"/>
<path d="M110.554 19.7152C110.91 19.7152 111.198 19.4265 111.198 19.0704C111.198 18.7143 110.91 18.4256 110.554 18.4256C110.199 18.4256 109.911 18.7143 109.911 19.0704C109.911 19.4265 110.199 19.7152 110.554 19.7152Z" fill="#0F1011"/>
<path d="M115.633 19.3024C115.989 19.3024 116.277 19.0137 116.277 18.6576C116.277 18.3014 115.989 18.0127 115.633 18.0127C115.278 18.0127 114.99 18.3014 114.99 18.6576C114.99 19.0137 115.278 19.3024 115.633 19.3024Z" fill="#0F1011"/>
<path d="M116.75 17.2837H116.746L115.041 17.2606C114.963 17.2571 114.889 17.2235 114.835 17.1667C114.782 17.1098 114.752 17.0343 114.752 16.9558C114.753 16.8774 114.783 16.8022 114.838 16.746C114.893 16.6898 114.967 16.657 115.045 16.6545H115.049L116.754 16.6772C116.834 16.6777 116.911 16.7102 116.968 16.7674C117.024 16.8247 117.055 16.902 117.055 16.9825C117.054 17.0629 117.022 17.1398 116.965 17.1963C116.908 17.2528 116.83 17.2843 116.75 17.2837Z" fill="#0F1011"/>
<path d="M109.165 17.9023C109.092 17.902 109.02 17.8746 108.965 17.8252C108.91 17.7758 108.875 17.7079 108.866 17.6342C108.858 17.5606 108.876 17.4864 108.918 17.4256C108.961 17.3648 109.024 17.3216 109.096 17.3042L110.777 16.9003C110.817 16.8895 110.858 16.8867 110.898 16.8921C110.938 16.8974 110.977 16.9109 111.012 16.9316C111.047 16.9523 111.077 16.9799 111.101 17.0126C111.125 17.0454 111.143 17.0827 111.152 17.1223C111.162 17.1619 111.163 17.203 111.156 17.2431C111.149 17.2832 111.135 17.3216 111.113 17.3559C111.091 17.3902 111.062 17.4198 111.029 17.4428C110.995 17.4658 110.958 17.4818 110.918 17.4899L109.237 17.8938C109.213 17.8995 109.189 17.9023 109.165 17.9023Z" fill="#0F1011"/>
<path d="M110.848 24.1521C110.848 24.1521 113.224 24.4055 114.891 23.8234C114.891 23.8234 114.876 25.3923 112.996 25.5451C111.116 25.6978 110.848 24.1521 110.848 24.1521Z" fill="#F8FCFF"/>
<path d="M104.672 14.5316C105.138 21.1991 104.406 27.8962 102.51 34.3043C102.51 34.3043 97.0933 24.943 96.2553 17.1479C95.4703 9.84048 100.846 5.53146 104.475 4.72319C118.27 1.64417 119.262 11.7443 119.262 11.7443C116.749 16.9822 103.178 16.9595 103.178 16.9595" fill="#0F1011"/>
<path d="M107.302 21.8484C107.36 22.5714 107.13 23.2882 106.661 23.8409C106.192 24.3937 105.524 24.7371 104.802 24.7958C104.081 24.8544 103.366 24.6234 102.814 24.1536C102.263 23.6838 101.92 23.0136 101.862 22.2906C101.826 21.9313 101.864 21.5687 101.971 21.2242C102.079 20.8797 102.254 20.5604 102.488 20.2854C102.721 20.0103 103.007 19.7852 103.329 19.6232C103.651 19.4613 104.002 19.366 104.361 19.3429C106.306 19.2828 107.18 20.3427 107.302 21.8484Z" fill="#E98862"/>
<g opacity="0.15">
<path d="M113.409 22.6517C113.356 22.6517 113.304 22.6325 113.264 22.5977C113.224 22.5628 113.197 22.5147 113.19 22.462C113.182 22.4092 113.193 22.3554 113.221 22.3103C113.25 22.2652 113.293 22.2318 113.344 22.2162L114.654 21.8154L113.742 19.7696C113.73 19.7429 113.723 19.7141 113.723 19.6848C113.722 19.6556 113.727 19.6265 113.737 19.5991C113.747 19.5718 113.763 19.5468 113.783 19.5255C113.803 19.5043 113.827 19.4872 113.854 19.4752C113.88 19.4632 113.909 19.4567 113.938 19.4558C113.968 19.455 113.997 19.4599 114.024 19.4703C114.051 19.4808 114.076 19.4965 114.097 19.5166C114.118 19.5366 114.136 19.5607 114.147 19.5874L115.164 21.8626C115.177 21.8914 115.183 21.9226 115.183 21.9542C115.183 21.9857 115.176 22.0169 115.163 22.0456C115.15 22.0743 115.131 22.0999 115.108 22.1207C115.084 22.1415 115.056 22.1571 115.026 22.1663L113.475 22.6419C113.454 22.6486 113.431 22.6519 113.409 22.6517Z" fill="black"/>
</g>
<path d="M89.761 90.313L89.5921 90.4613L90.3172 87.9394L84.8523 88.1688C84.8523 88.1688 77.44 96.8082 82.3331 99.2473C84.6728 100.413 85.5125 95.1716 87.108 93.6682C87.1236 94.6684 87.2262 96.0342 87.6701 96.0373C88.8399 96.0427 89.394 91.5862 89.761 90.313Z" fill="#E98862"/>
<path d="M114.113 38.8239L82.3344 88.4291L90.4855 93.6751L122.264 44.0699L114.113 38.8239Z" fill="#367CFF"/>
<path d="M150.229 215.191L140.965 214.086C141.382 210.572 141.853 206.351 141.885 205.659C141.885 205.703 141.885 205.739 141.885 205.768H151.216C151.213 206.048 151.213 206.901 150.229 215.191Z" fill="#E98862"/>
<path d="M55.3119 209.908L47.1327 205.41C47.1327 205.41 51.7672 196.945 52.1755 196.194L60.3689 200.666C59.9597 201.418 55.3119 209.908 55.3119 209.908Z" fill="#E98862"/>
<path d="M128.198 151.15C131.284 171.537 134.842 192.849 137.314 213.242L153.593 210.954C150.102 189.855 147.574 167.579 144.428 146.403C137.784 127.059 121.076 84.314 121.076 84.314L87.2782 82.2209C87.2782 82.2209 80.7181 133.007 78.2229 149.223L47.114 200.379L61.0132 209.174L94.7985 157.366C95.4109 156.417 95.8326 155.358 96.0399 154.248C96.1154 153.854 98.4138 141.225 98.4782 140.901C100.744 129.066 106.533 104.112 106.533 104.112C113.757 119.757 122.075 135.351 128.198 151.15Z" fill="#262626"/>
<path d="M63.5461 218.52C63.7671 218.64 64.0103 218.712 64.2605 218.733C64.5106 218.754 64.7624 218.723 65.0001 218.642C65.2378 218.561 65.4563 218.432 65.6419 218.262C65.8274 218.093 65.9761 217.887 66.0787 217.657C66.2207 217.339 66.2691 216.987 66.2182 216.642C66.1673 216.297 66.0191 215.974 65.7912 215.711L57.9941 207.304C57.8426 207.142 57.6579 207.015 57.4527 206.931C57.2475 206.847 57.0266 206.808 56.8052 206.817C54.9981 207.014 53.1759 206.623 51.6068 205.704C50.4125 204.938 49.4572 203.85 48.8499 202.566C48.8009 202.445 48.7185 202.34 48.6125 202.264C48.5064 202.188 48.381 202.144 48.2509 202.137C48.1208 202.13 47.9913 202.16 47.8776 202.224C47.7638 202.287 47.6705 202.382 47.6085 202.497L45.0693 207.173C44.9944 207.311 44.9474 207.462 44.931 207.618C44.9146 207.775 44.9291 207.932 44.9737 208.083C45.0184 208.233 45.0922 208.374 45.191 208.495C45.2899 208.617 45.4117 208.718 45.5496 208.793L63.5461 218.52Z" fill="#C1D8ED"/>
<path d="M161.596 219.926C161.847 219.924 162.095 219.871 162.324 219.77C162.554 219.668 162.76 219.52 162.93 219.335C163.1 219.15 163.23 218.932 163.312 218.695C163.394 218.457 163.427 218.205 163.407 217.954C163.38 217.607 163.255 217.274 163.045 216.996C162.836 216.717 162.552 216.505 162.226 216.383L151.367 212.738C151.157 212.668 150.934 212.644 150.714 212.669C150.493 212.693 150.281 212.765 150.091 212.88C148.598 213.918 146.813 214.448 144.996 214.394C143.582 214.293 142.224 213.796 141.078 212.959C140.977 212.876 140.855 212.824 140.725 212.808C140.596 212.792 140.465 212.813 140.347 212.869C140.229 212.925 140.13 213.014 140.061 213.124C139.991 213.235 139.954 213.363 139.955 213.493V218.815C139.955 218.972 139.986 219.128 140.046 219.273C140.106 219.418 140.194 219.55 140.305 219.66C140.416 219.771 140.548 219.859 140.693 219.919C140.838 219.978 140.993 220.009 141.15 220.008L161.596 219.926Z" fill="#C1D8ED"/>
<path d="M139.508 87.8637C139.201 87.5569 138.55 87.1833 138.455 87.0853C138.709 86.9918 139.477 87.0764 139.954 86.9072C140.389 86.7513 140.61 86.1679 139.916 85.4719C139.041 84.595 134.556 83.1294 134.556 83.1294L130.957 87.9604C130.957 87.9604 138.158 96.3771 140.882 95.1609C144.317 93.6276 141.111 89.4718 139.508 87.8637Z" fill="#E98862"/>
<path d="M138.263 83.7952L122.761 67.8475C122.785 66.9149 122.827 65.9325 122.897 64.8838C123.709 52.5575 131.088 36.1212 116.404 34.6823C116.126 34.6538 115.678 34.6204 115.102 34.5799C114.853 37.019 99.7449 36.1858 99.561 33.6741C95.2934 33.4457 91.7221 34.5648 89.5841 36.4877C82.2176 43.1093 90.144 55.5109 89.637 64.8481C89.1301 74.1854 84.6879 78.1435 84.7381 82.9535C84.8172 90.5121 121.435 90.7268 123.526 86.546C124.043 85.5236 124.274 84.3802 124.196 83.2367L131.324 90.5704L138.263 83.7952Z" fill="#198008"/>
<path d="M115.103 34.5799C114.854 37.019 113.333 40.5438 109.223 40.5919C103.748 40.6547 99.7458 36.1862 99.5619 33.6746H99.5752C104.947 33.968 111.973 34.3604 115.103 34.5799Z" fill="#E98862"/>
<path d="M244.88 193.804C246.027 193.804 246.957 192.872 246.957 191.723C246.957 190.573 246.027 189.641 244.88 189.641C243.733 189.641 242.804 190.573 242.804 191.723C242.804 192.872 243.733 193.804 244.88 193.804Z" fill="#FD5D76"/>
<path d="M208.544 202.132C208.544 202.132 204.59 209.213 200.774 210.345C197.039 211.454 201.646 221.682 201.646 221.682H198.304C198.304 221.682 194.639 212.831 194.639 209.854C194.639 208.2 196.393 208.319 196.819 206.153C197.16 204.42 196.607 199.23 195.406 198.026" fill="#C1D8ED"/>
<path d="M237.363 198.026C237.363 198.026 233.831 208.079 232.984 210.629L235.174 220.675L232.644 221.432C232.644 221.432 229.028 212.481 229.028 209.854C229.028 207.226 230.158 199.011 230.158 199.011L237.363 198.026Z" fill="#C1D8ED"/>
<path d="M184.395 222.415H182.017C181.817 222.422 181.618 222.389 181.431 222.317C181.245 222.245 181.074 222.136 180.931 221.997C180.787 221.858 180.672 221.691 180.594 221.507C180.516 221.322 180.476 221.124 180.476 220.924C180.476 220.723 180.516 220.525 180.594 220.34C180.672 220.156 180.787 219.989 180.931 219.85C181.074 219.711 181.245 219.602 181.431 219.53C181.618 219.458 181.817 219.425 182.017 219.432H184.395C184.78 219.445 185.146 219.608 185.414 219.886C185.683 220.165 185.832 220.537 185.832 220.924C185.832 221.311 185.683 221.682 185.414 221.961C185.146 222.239 184.78 222.402 184.395 222.415Z" fill="white"/>
<path d="M236.421 222.415H234.043C233.844 222.422 233.644 222.389 233.458 222.317C233.271 222.245 233.101 222.136 232.957 221.997C232.813 221.858 232.699 221.691 232.621 221.507C232.543 221.322 232.503 221.124 232.503 220.924C232.503 220.723 232.543 220.525 232.621 220.34C232.699 220.156 232.813 219.989 232.957 219.85C233.101 219.711 233.271 219.602 233.458 219.53C233.644 219.458 233.844 219.425 234.043 219.432H236.421C236.807 219.445 237.173 219.608 237.441 219.886C237.709 220.165 237.859 220.537 237.859 220.924C237.859 221.311 237.709 221.682 237.441 221.961C237.173 222.239 236.807 222.402 236.421 222.415Z" fill="#C1D8ED"/>
<path d="M201.963 222.415H199.585C199.386 222.422 199.186 222.389 199 222.317C198.813 222.245 198.643 222.136 198.499 221.997C198.355 221.858 198.241 221.691 198.163 221.507C198.085 221.322 198.045 221.124 198.045 220.924C198.045 220.723 198.085 220.525 198.163 220.34C198.241 220.156 198.355 219.989 198.499 219.85C198.643 219.711 198.813 219.602 199 219.53C199.186 219.458 199.386 219.425 199.585 219.432H201.963C202.163 219.425 202.362 219.458 202.549 219.53C202.735 219.602 202.906 219.711 203.049 219.85C203.193 219.989 203.308 220.156 203.386 220.34C203.464 220.525 203.504 220.723 203.504 220.924C203.504 221.124 203.464 221.322 203.386 221.507C203.308 221.691 203.193 221.858 203.049 221.997C202.906 222.136 202.735 222.245 202.549 222.317C202.362 222.389 202.163 222.422 201.963 222.415Z" fill="#C1D8ED"/>
<path d="M260.437 177.294C256.345 177.294 255.772 172.871 254.035 170.29C250.077 164.409 238.351 166.575 236.082 171.715C234.82 174.573 232.439 180.455 231.488 181.16C229.751 182.449 226.032 182.53 220.034 182.023C206.589 180.883 199.685 177.841 193.393 182.094C185.257 183.297 184.168 172.641 181.624 168.384C180.691 166.825 178.921 168.146 178.878 169.963C178.768 174.517 181.117 186.463 189.833 185.54C189.555 186.164 189.331 186.733 189.156 187.255C188.556 188.715 187.213 192.688 187.213 199.012C187.213 204.257 184.731 203.885 182.692 204.39C179.831 205.098 178.061 215.177 180.886 221.682H184.559C183.449 221.687 181.309 213.625 184.382 208.937C186.836 205.19 196.7 211.743 200.585 200.535C208.798 203.576 222.34 205.256 230.783 203.31C232.341 205.399 234.82 208.798 235.078 209.622C235.47 210.876 228.744 213.744 228.744 213.744L230.299 216.292C231.571 215.624 239.274 212.106 239.274 210.086C239.274 208.216 237.711 203.796 236.552 200.775C244.884 194.678 241.96 184.6 254.672 186.624C260.253 187.515 265.762 185.454 267.903 181.806C270.02 178.19 265.546 177.294 260.437 177.294Z" fill="white"/>
<path d="M230.011 218.871C229.724 218.871 229.444 218.788 229.203 218.632C228.962 218.477 228.772 218.255 228.654 217.993L227.672 215.822C227.513 215.462 227.503 215.054 227.643 214.687C227.783 214.319 228.062 214.022 228.42 213.86C228.777 213.697 229.184 213.683 229.552 213.82C229.92 213.956 230.22 214.233 230.385 214.59L231.366 216.762C231.469 216.989 231.513 217.238 231.495 217.487C231.476 217.736 231.396 217.976 231.261 218.186C231.127 218.396 230.942 218.568 230.723 218.688C230.505 218.807 230.26 218.87 230.011 218.871Z" fill="white"/>
<path d="M242.744 167.171C246.733 167.171 247.273 172.66 245.415 175.701C243.295 179.172 233.754 181.542 229.519 179.843C225.284 178.143 228.014 174.342 233.829 171.227C239.644 168.112 239.861 167.171 242.744 167.171Z" fill="#202123"/>
<path d="M264.38 180.465C264.621 181.596 265.972 182.231 267.369 182.59C267.563 182.34 267.74 182.078 267.9 181.805C269.386 179.27 267.629 178.071 264.686 177.585C264.254 178.481 264.146 179.498 264.38 180.465Z" fill="#202123"/>
<path d="M253.733 175.701C254.249 175.701 254.668 175.281 254.668 174.763C254.668 174.245 254.249 173.825 253.733 173.825C253.216 173.825 252.797 174.245 252.797 174.763C252.797 175.281 253.216 175.701 253.733 175.701Z" fill="#202123"/>
<path d="M243.238 190.389C233.712 190.389 230.723 182.07 230.692 181.981C230.614 181.744 230.632 181.485 230.743 181.26C230.853 181.036 231.047 180.864 231.283 180.782C231.519 180.7 231.777 180.714 232.003 180.821C232.229 180.928 232.403 181.12 232.489 181.355C232.603 181.682 235.411 189.342 244.786 188.404C244.912 188.389 245.039 188.399 245.161 188.434C245.282 188.469 245.396 188.527 245.495 188.607C245.593 188.686 245.675 188.784 245.736 188.896C245.796 189.007 245.834 189.13 245.846 189.256C245.859 189.382 245.846 189.509 245.809 189.631C245.772 189.752 245.711 189.864 245.63 189.962C245.548 190.059 245.449 190.139 245.336 190.197C245.224 190.256 245.101 190.291 244.975 190.301C244.373 190.361 243.794 190.389 243.238 190.389Z" fill="#202123"/>
<path d="M228.231 203.771C220.825 204.781 210.832 203.641 203.472 201.487C203.81 200.24 204.83 198.669 207.728 198.025C212.89 196.881 212.293 192.435 217.455 192.435C221.276 192.435 220.688 195.998 223.655 198.025C226.379 199.885 227.957 202.07 228.231 203.771Z" fill="#202123"/>
<path d="M186.936 179.617C186.338 180.293 185.602 180.833 184.778 181.198C183.953 181.563 183.06 181.746 182.158 181.733C179.626 178.058 178.815 172.689 178.879 169.964C178.921 168.148 180.694 166.825 181.626 168.385C183.25 171.103 184.281 176.433 186.936 179.617Z" fill="#202123"/>
<path d="M214.476 184.333C213.206 187.357 210.144 187.498 208.546 185.892C206.948 184.286 204.472 185.621 201.965 183.109C201.089 182.267 200.55 181.133 200.447 179.921C204.255 179.772 208.763 180.699 214.765 181.462C214.935 182.427 214.835 183.421 214.476 184.333Z" fill="#202123"/>
<path d="M194.639 193.804C194.639 196.058 192.288 196.206 190.797 197.697C189.751 198.746 188.914 199.985 187.16 200.24C187.195 199.87 187.214 199.462 187.214 199.012C187.175 195.763 187.584 192.523 188.431 189.385C189.351 188.993 190.223 188.94 190.774 189.641C193.068 192.55 194.639 191.722 194.639 193.804Z" fill="#202123"/>
</g>
<defs>
<clipPath id="clip0_1_726">
<rect width="315" height="239" fill="white"/>
</clipPath>
</defs>
</svg>
